<?xml version="1.0" encoding="UTF-8"?>
<svg width="42px" height="42px" viewBox="0 0 42 42" version="1.1" xmlns="http://www.w3.org/2000/svg" xmlns:xlink="http://www.w3.org/1999/xlink">
    <!-- Generator: Sketch 55 (78076) - https://sketchapp.com -->
    <title>email</title>
    <desc>Created with Sketch.</desc>
    <g id="icons" stroke="none" stroke-width="1" fill="none" fill-rule="evenodd">
        <g id="navigation" transform="translate(-229.000000, -88.000000)">
            <g id="email" transform="translate(230.000000, 89.000000)">
                <path d="M8,9.5 L32,9.5 C33.9329966,9.5 35.5,11.0670034 35.5,13 L35.5,25 C35.5,26.9329966 33.9329966,28.5 32,28.5 L8,28.5 C6.06700338,28.5 4.5,26.9329966 4.5,25 L4.5,13 C4.5,11.0670034 6.06700338,9.5 8,9.5 Z" id="Rectangle" stroke="#FFFFFF" fill="#000000" transform="translate(20.000000, 19.000000) scale(1, -1) translate(-20.000000, -19.000000) "></path>
                <path d="M23.2829174,14.7707215 L33.7860738,25.9740883 C34.3526692,26.5784567 34.3220481,27.5277104 33.7176797,28.0943058 C33.4396605,28.3549488 33.0728578,28.5 32.691768,28.5 L7.30823201,28.5 C6.47980489,28.5 5.80823201,27.8284271 5.80823201,27 C5.80823201,26.6189102 5.9532832,26.2521075 6.21392621,25.9740883 L16.7170826,14.7707215 C18.4168687,12.9576163 21.2646299,12.865753 23.0777351,14.5655392 C23.1483171,14.6317098 23.2167468,14.7001395 23.2829174,14.7707215 Z" id="Triangle" stroke="#FFFFFF" fill="#000000"></path>
                <path d="M21.7057956,10.9081331 L33.4864571,21.9034171 C34.0920831,22.468668 34.1248135,23.4178514 33.5595626,24.0234774 C33.2758735,24.32743 32.8787521,24.5 32.4629797,24.5 L7.53702032,24.5 C6.7085932,24.5 6.03702032,23.8284271 6.03702032,23 C6.03702032,22.5842276 6.20959035,22.1871062 6.51354295,21.9034171 L18.2942044,10.9081331 C19.2547213,10.0116507 20.7452787,10.0116507 21.7057956,10.9081331 Z" id="Triangle-Copy" stroke="#FFFFFF" fill="#000000" transform="translate(20.000000, 17.000000) rotate(180.000000) translate(-20.000000, -17.000000) "></path>
                <g id="Path_1" fill="#FFFFFF" fill-rule="nonzero" stroke="#FFFFFF" stroke-width="2">
                    <path d="M3.20000125,0.205128205 C2.40004006,0.205128205 1.64795861,0.516651643 1.08230669,1.08230669 C0.516651643,1.64795861 0.205128205,2.40004006 0.205128205,3.20000125 L0.205128205,36.7999987 C0.205128205,37.5999599 0.516651643,38.3520351 1.08230669,38.9176933 C1.64796487,39.4833484 2.40004006,39.7948718 3.20000125,39.7948718 L36.7999987,39.7948718 C37.5999599,39.7948718 38.3520351,39.4833484 38.9176933,38.9176933 C39.4833484,38.3520351 39.7948718,37.5999599 39.7948718,36.7999987 L39.7948718,3.20000125 C39.7948718,2.40004006 39.4833484,1.64796487 38.9176933,1.08230669 C38.3520351,0.516651643 37.5999599,0.205128205 36.7999987,0.205128205 L3.20000125,0.205128205 L3.20000125,0.205128205 Z M3.20000125,0 L36.7999987,0 C38.5673077,0 40,1.43268605 40,3.20000125 L40,36.7999987 C40,38.5673077 38.5673077,40 36.7999987,40 L3.20000125,40 C1.43268605,40 0,38.5673077 0,36.7999987 L0,3.20000125 C0,1.43268605 1.43268605,0 3.20000125,0 Z" id="Shape"></path>
                </g>
            </g>
        </g>
    </g>
</svg>
