<svg xmlns="http://www.w3.org/2000/svg" width="20" height="" viewBox="0 0 60.913 54.912">
  <g id="hammer" transform="matrix(0.94, -0.342, 0.342, 0.94, -724.872, 1720.725)">
    <g id="Group_44" data-name="Group 44" transform="translate(1281.186 -1343.747) rotate(-25)">
      <path id="Path_127" data-name="Path 127" d="M4.576,0c2.549,0,3.142,3.209,3.6,8,.344,3.637.816,8.193.816,12.854,0,10.838.527,13.413-4.661,13.322S.064,31.7.064,20.858A130.325,130.325,0,0,1,1,7.633C1.49,2.888,2.045,0,4.576,0Z" transform="translate(0 15.44)"/>
      <path id="Path_128" data-name="Path 128" d="M2.513,42.472C-.924,42.472.372,28.836.372,14.085S-1.344-.209,2.6.1,4.984-.666,4.984,14.085,5.95,42.472,2.513,42.472Z" transform="translate(1.857 0)"/>
    </g>
    <path id="Path_129" data-name="Path 129" d="M147.1-41.594c-.037-.441-.829-1.7,2.891-2.922,1.633-.3,1.973,1.167,5.064-.842.461-.3.168-3.186,5.907-5.526,3.344-1.22,3.9-.513,5.708-.584a73.679,73.679,0,0,1,17.643,4.024l-.6.8a75.121,75.121,0,0,0-9.57-.8,8.76,8.76,0,0,0-3.7.8c-2,1.006.653,5.152-.336,6.068s-5.349,2.824-5.9,2.534-.951-.938-2.425-3.154-7.415-1.53-7.775,2.834c-.134,1.619-1.1,1.716-1.969,2.186-1.435.78-1.776.875-3.013-.479S147.137-41.153,147.1-41.594Z" transform="translate(1118.31 -1305.432)"/>
  </g>
</svg>
