<?xml version="1.0" encoding="UTF-8"?>
<svg width="42px" height="42px" viewBox="0 0 42 42" version="1.1" xmlns="http://www.w3.org/2000/svg" xmlns:xlink="http://www.w3.org/1999/xlink">
    <!-- Generator: Sketch 55 (78076) - https://sketchapp.com -->
    <title>phone</title>
    <desc>Created with Sketch.</desc>
    <g id="Page-1" stroke="none" stroke-width="1" fill="none" fill-rule="evenodd">
        <g id="phone" transform="translate(1.000000, 1.000000)">
            <g id="icon-exclamation" fill-rule="nonzero">
                <g id="Path_1">
                    <path d="M36.7999987,39.8974359 L3.20000008,39.8974359 C2.37264623,39.8974359 1.59481029,39.5752454 1.0097846,38.9902156 C0.424753825,38.4051889 0.102564103,37.6273538 0.102564103,36.7999987 L0.102564103,3.20000008 C0.102564103,2.37264623 0.424753825,1.59481029 1.0097846,1.0097846 C1.59481029,0.424753825 2.37264623,0.102564103 3.20000008,0.102564103 L36.7999987,0.102564103 C37.6273538,0.102564103 38.4051889,0.424753825 38.9902219,1.0097846 C39.5752454,1.59481029 39.8974359,2.37264623 39.8974359,3.20000008 L39.8974359,36.7999987 C39.8974359,37.6273538 39.5752454,38.4051889 38.9902219,38.9902156 C38.4051889,39.5752454 37.6273538,39.8974359 36.7999987,39.8974359 Z" id="Path" stroke="" stroke-width="2" fill="#FFFFFF"></path>
                    <path d="M3.20000125,0.205128205 C2.40004006,0.205128205 1.64795861,0.516651643 1.08230669,1.08230669 C0.516651643,1.64795861 0.205128205,2.40004006 0.205128205,3.20000125 L0.205128205,36.7999987 C0.205128205,37.5999599 0.516651643,38.3520351 1.08230669,38.9176933 C1.64796487,39.4833484 2.40004006,39.7948718 3.20000125,39.7948718 L36.7999987,39.7948718 C37.5999599,39.7948718 38.3520351,39.4833484 38.9176933,38.9176933 C39.4833484,38.3520351 39.7948718,37.5999599 39.7948718,36.7999987 L39.7948718,3.20000125 C39.7948718,2.40004006 39.4833484,1.64796487 38.9176933,1.08230669 C38.3520351,0.516651643 37.5999599,0.205128205 36.7999987,0.205128205 L3.20000125,0.205128205 L3.20000125,0.205128205 Z M3.20000125,0 L36.7999987,0 C38.5673077,0 40,1.43268605 40,3.20000125 L40,36.7999987 C40,38.5673077 38.5673077,40 36.7999987,40 L3.20000125,40 C1.43268605,40 0,38.5673077 0,36.7999987 L0,3.20000125 C0,1.43268605 1.43268605,0 3.20000125,0 Z" id="Shape"></path>
                </g>
            </g>
            <g id="Path-3" transform="translate(7.000000, 6.000000)" fill="#000000">
                <path d="M11.590764,7.01791532 C11.5545257,7.71800205 11.590764,7.92695114 10.9845172,9.08364977 C10.344354,10.3050597 9.38939123,10.8274694 8.11962891,10.6508789 C8.86977496,13.3175605 10.02682,15.3828847 11.590764,16.8468514 C13.2988223,18.4457198 15.2282031,19.6014243 17.3789062,20.3139648 C17.7221622,18.9067292 17.9960484,18.038443 18.2005648,17.7091062 C18.4807516,17.2579157 19.3848457,16.8468514 19.3848457,16.8468514 C19.3848457,16.8468514 20.4788757,16.2085497 21.1731446,16.2085497 C22.7514603,16.2085497 28.2462297,19.867714 27.4972843,22.6171918 C27.3745552,23.0677466 27.0415483,23.9230101 26.9401542,24.2028718 C26.6989444,24.8686442 26.0922722,25.390119 25.2359466,25.9172607 C24.2555929,26.5207524 23.1113973,27.0990814 19.3848457,27.0990814 C17.6368832,27.0990814 14.3829441,26.3018629 10.9845172,24.2028718 C9.92419515,23.5479787 8.37987693,22.2516763 6.3515625,20.3139648 L3.967619,16.8468514 L2.30664062,13.1791992 C1.44131589,11.0360567 0.962647915,9.47565242 0.870636688,8.49798643 C0.727880217,6.98112647 1.18234578,5.12074689 1.51044004,4.29701346 C1.85866152,3.49380195 1.81928758,3.06031765 2.30664062,2.49429708 C2.49641771,2.27388657 4.07992699,0.00420326582 6.3515625,1 C7.39692493,1.45824627 8.8514388,2.54128585 9.83300502,3.82365408 C10.9900975,5.3353388 11.5929291,6.97608728 11.590764,7.01791532 Z" id="Path-2"></path>
            </g>
        </g>
    </g>
</svg>
